<svg xmlns="http://www.w3.org/2000/svg" xmlns:xlink="http://www.w3.org/1999/xlink" version="1.1" x="0px" y="0px" viewBox="0 0 208 220" enable-background="new 0 0 208 176" xml:space="preserve"><g><circle cx="76.3051758" cy="110.1342773" r="13.9291992"/><path d="M76.3051758,126.2158203c-9.878418,0-17.8847656,8.0068359-17.8847656,17.8837891v16.3027344h35.7695313v-16.3027344   C94.1899414,134.2226563,86.1831055,126.2158203,76.3051758,126.2158203z"/><circle cx="130.8144531" cy="110.1342773" r="13.9291992"/><path d="M130.8144531,126.2158203c-9.8779297,0-17.8847656,8.0068359-17.8847656,17.8837891v16.3027344h35.7695313v-16.3027344   C148.6992188,134.2226563,140.6933594,126.2158203,130.8144531,126.2158203z"/><path d="M144.5644531,13.7563477H119.515625c-5.4326172,0-10.484375,1.6225586-14.7304688,4.387207   c-4.2446289-2.7646484-9.2983398-4.387207-14.730957-4.387207H65.0058594   c-14.9345703,0-27.0859375,12.1508789-27.0859375,27.0869141c0,14.9350586,12.1513672,27.0864258,27.0859375,27.0864258h0.3613281   l12.7451172,26.2207031l12.7514648-26.2329102c5.1245117-0.1513672,9.8793945-1.7563477,13.9125977-4.3803711   c4.2470703,2.7670898,9.3027344,4.3925781,14.7392578,4.3925781h0.3613281l12.7451172,26.2207031l12.7519531-26.2329102   c14.5625-0.4296875,26.2773438-12.409668,26.2773438-27.0742188C171.6513672,25.9072266,159.5,13.7563477,144.5644531,13.7563477z    M104.7851563,52.7070313c-2.6220703-3.2490234-4.199707-7.3735352-4.199707-11.8637695s1.5776367-8.6147461,4.199707-11.8637695   c2.6220703,3.2490234,4.2011719,7.3735352,4.2011719,11.8637695S107.4072266,49.4580078,104.7851563,52.7070313z    M90.0541992,59.7739258h-4.2993164l-7.6425781,15.7216797l-7.6420898-15.7216797h-5.4643555   c-10.4389648,0-18.9301758-8.4921875-18.9301758-18.9306641c0-10.4389648,8.4912109-18.9316406,18.9301758-18.9316406h25.0483398   c3.0068359,0,5.8427734,0.7236328,8.3696289,1.9770508c-3.7412109,4.6455078-5.9936523,10.5385742-5.9936523,16.9545898   c0,6.4155273,2.2524414,12.309082,5.9936523,16.9541016C95.8969727,59.0507813,93.0610352,59.7739258,90.0541992,59.7739258z    M144.5644531,59.7739258h-4.2998047l-7.6425781,15.7216797l-7.6425781-15.7216797h-5.4638672   c-3.0019531,0-5.8320313-0.7207031-8.3564453-1.9702148c3.7402344-4.6450195,5.9824219-10.5458984,5.9824219-16.9604492   c0-6.4160156-2.2539063-12.3095703-5.9960938-16.9545898c2.5283203-1.253418,5.3632813-1.9770508,8.3701172-1.9770508h25.0488281   c10.4384766,0,18.9316406,8.4926758,18.9316406,18.9316406C163.4960938,51.2817383,155.0029297,59.7739258,144.5644531,59.7739258z   "/></g><text x="0" y="191" fill="#000000" font-size="5px" font-weight="bold" font-family="'Helvetica Neue', Helvetica, Arial-Unicode, Arial, Sans-serif">Created by sachin modgekar</text><text x="0" y="196" fill="#000000" font-size="5px" font-weight="bold" font-family="'Helvetica Neue', Helvetica, Arial-Unicode, Arial, Sans-serif">from the Noun Project</text></svg>