<svg xmlns="http://www.w3.org/2000/svg" xmlns:xlink="http://www.w3.org/1999/xlink" version="1.1" x="0px" y="0px" viewBox="0 0 100 125" enable-background="new 0 0 100 100" xml:space="preserve"><circle cx="50.199" cy="27.183" r="12.853"/><path d="M49.5,71.319c-2.201,0-4.5-1.784-4.5-3.985v-21.32c0-2.202,2.299-3.986,4.5-3.986s4.5,1.784,4.5,3.986v21.32  C54,69.535,51.701,71.319,49.5,71.319z"/><path d="M34.79,86.33c-1.021,0-2.04-0.389-2.818-1.168c-1.557-1.556-1.557-4.079,0-5.636L47.048,64.45  c1.557-1.556,4.08-1.556,5.637,0c1.557,1.557,1.557,4.08,0,5.637L37.607,85.162C36.83,85.941,35.81,86.33,34.79,86.33z"/><path d="M65.21,86.33c-1.021,0-2.04-0.389-2.817-1.168L47.315,70.087c-1.557-1.557-1.557-4.08,0-5.637  c1.557-1.556,4.079-1.556,5.636,0l15.076,15.076c1.557,1.557,1.557,4.08,0,5.636C67.25,85.941,66.229,86.33,65.21,86.33z"/><path d="M69.029,50H30.97c-2.201,0-3.985-1.799-3.985-4s1.784-4,3.985-4h38.06c2.201,0,3.986,1.799,3.986,4S71.23,50,69.029,50z"/><text x="0" y="115" fill="#000000" font-size="5px" font-weight="bold" font-family="'Helvetica Neue', Helvetica, Arial-Unicode, Arial, Sans-serif">Created by Brian Dys Sahagun</text><text x="0" y="120" fill="#000000" font-size="5px" font-weight="bold" font-family="'Helvetica Neue', Helvetica, Arial-Unicode, Arial, Sans-serif">from the Noun Project</text></svg>